<svg xmlns="http://www.w3.org/2000/svg" version="1.1" xmlns:xlink="http://www.w3.org/1999/xlink" xmlns:svgjs="http://svgjs.dev/svgjs" width="1000" height="1033" viewBox="0 0 1000 1033"><g transform="matrix(1,0,0,1,0.2037155258216785,0.418990914271717)"><svg viewBox="0 0 239 247" data-background-color="#915eff" preserveAspectRatio="xMidYMid meet" height="1033" width="1000" xmlns="http://www.w3.org/2000/svg" xmlns:xlink="http://www.w3.org/1999/xlink"><g id="tight-bounds" transform="matrix(1,0,0,1,-0.04868801067138406,-0.09997365579206985)"><svg viewBox="0 0 239.09700152125282 247.2" height="247.2" width="239.09700152125282"><g><svg viewBox="0 0 239.09700152125282 247.2" height="247.2" width="239.09700152125282"><g><svg viewBox="0 0 239.09700152125282 247.2" height="247.2" width="239.09700152125282"><g id="textblocktransform"><svg viewBox="0 0 239.09700152125282 247.2" height="247.2" width="239.09700152125282" id="textblock"><g><svg viewBox="0 0 239.09700152125282 247.2" height="247.2" width="239.09700152125282"><path d="M238.537 53.02C237.413 27.36 234.21 20.227 234.21 20.227 224.374-6.202 212.1-0.506 201.073 3.292 181.604 3.446 162.214 9.091 142.791 12.119 102.022 12.581 60.904 4.986 20.337 23.717 16.527 29.464-3.953 24.846 0.678 56.304 1.892 69.39 6.321 83.913 6.186 95.922 6.793 98.026 7.636 93.202 7.995 96.23 9.254 104.39 11.311 100.541 12.997 105.365 10.648 118.246 12.334 128.971 13.942 140.21 11.109 143.135 7.478 141.749 5.848 151.449 5.68 158.479 4.769 157.145 3.769 156.837 3.038 156.632 1.566 157.402 1.813 159.608 2.656 167.152-0.963 171.514 1.307 178.904-0.255 186.91 2.386 193.838 2.027 202.511 1.982 204.255 2.229 205.744 2.622 206.154 4.365 208.361 1.824 212.672 2.094 217.342 19.966 249.262 39.356 227.195 57.667 241.872 62.422 231.608 58.847 245.516 60.747 243.36 62.231 240.846 63.31 251.263 64.984 245.362 65.243 243.668 64.85 239.665 65.771 240.435 66.255 240.846 66.682 240.743 66.749 238.382 66.85 234.841 65.962 237.048 65.726 235.201 68.278 225.861 67.648 248.081 70.043 247.158 69.93 244.438 69.233 240.538 70.661 241.051 72.077 237.151 72.122 233.918 73.381 242.693 73.426 244.592 73.651 245.926 74.011 246.85 77.945 237.305 81.856 250.237 85.982 245.926 88.511 241.205 90.939 248.492 93.502 246.696 94.401 245.259 95.311 242.693 96.177 247.004 106.777 247.928 118.073 244.079 128.122 247.158 154.976 241.41 183.673 249.518 211.987 241.923 218.664 238.998 225.599 234.841 232.108 231.506 232.108 231.506 237.379 222.371 237.379 181.316S238.504 145.393 238.672 112.703C238.841 80.013 239.628 78.679 238.504 53.02Z" opacity="1" fill="#5c26d0" data-fill-palette-color="tertiary"></path><g transform="matrix(1,0,0,1,55.76832000000001,26.230666666666668)"><svg width="127.5603615212528" viewBox="1.55 -36.35 24.4 37.25" height="194.73866666666666" data-palette-color="#915eff"><path d="M20.8-9.75Q20.1-6.9 18.82-4.9 17.55-2.9 15.83-1.6 14.1-0.3 12.15 0.3 10.2 0.9 8.25 0.9L8.25 0.9Q7.1 0.9 5.9 0.53 4.7 0.15 3.75-0.6 2.8-1.35 2.18-2.5 1.55-3.65 1.55-5.2L1.55-5.2Q1.55-5.4 1.55-5.6 1.55-5.8 1.6-6L1.6-6Q1.8-8.05 2.25-10.95 2.7-13.85 3.2-17 3.7-20.15 4.3-23.33 4.9-26.5 5.38-29.1 5.85-31.7 6.2-33.43 6.55-35.15 6.65-35.55L6.65-35.55Q7.7-35.65 9.15-35.8 10.6-35.95 11.85-36.05L11.85-36.05Q13.4-36.2 14.9-36.35L14.9-36.35Q13.6-30.3 12.6-25.4L12.6-25.4Q12.15-23.3 11.73-21.2 11.3-19.1 10.93-17.35 10.55-15.6 10.28-14.33 10-13.05 9.83-12.25 9.65-11.45 9.43-10.23 9.2-9 9.2-8L9.2-8Q9.2-7.2 9.6-6.68 10-6.15 10.6-6.15L10.6-6.15Q11.45-6.15 12-6.83 12.55-7.5 12.93-8.45 13.3-9.4 13.48-10.38 13.65-11.35 13.8-11.9L13.8-11.9Q14.1-13.35 14.48-15.13 14.85-16.9 15.23-18.82 15.6-20.75 15.98-22.75 16.35-24.75 16.7-26.65L16.7-26.65Q17.55-31.05 18.35-35.75L18.35-35.75 25.95-36.25Q25.95-36.25 25.7-34.95 25.45-33.65 25.05-31.5 24.65-29.35 24.18-26.6 23.7-23.85 23.1-20.88 22.5-17.9 21.93-15.03 21.35-12.15 20.8-9.75L20.8-9.75Z" opacity="1" transform="matrix(1,0,0,1,0,0)" fill="#915eff" class="wordmark-text-0" data-fill-palette-color="quaternary" id="text-0"></path></svg></g></svg></g></svg></g></svg></g><g></g></svg></g><defs></defs></svg><rect width="239.09700152125282" height="247.2" fill="none" stroke="none" visibility="hidden"></rect></g></svg></g></svg>